<svg width="128" height="128" viewBox="0 0 128 128" xmlns="http://www.w3.org/2000/svg">
  <defs>
    <!-- Gradient for modern, trustworthy feel -->
    <linearGradient id="primaryGradient" x1="0%" y1="0%" x2="100%" y2="100%">
      <stop offset="0%" style="stop-color:#3B82F6;stop-opacity:1" />
      <stop offset="100%" style="stop-color:#1E40AF;stop-opacity:1" />
    </linearGradient>

    <!-- Gradient for lens reflection -->
    <radialGradient id="lensReflection" cx="40%" cy="30%" r="60%">
      <stop offset="0%" style="stop-color:#FFFFFF;stop-opacity:0.3" />
      <stop offset="100%" style="stop-color:#FFFFFF;stop-opacity:0" />
    </radialGradient>

    <!-- Shadow filter -->
    <filter id="dropShadow" x="-20%" y="-20%" width="140%" height="140%">
      <feDropShadow dx="2" dy="4" stdDeviation="3" flood-color="#000" flood-opacity="0.2"/>
    </filter>
  </defs>

  <!-- Background circle for clean appearance -->
  <circle cx="64" cy="64" r="60" fill="url(#primaryGradient)" filter="url(#dropShadow)"/>

  <!-- Shield shape for trust/protection -->
  <path d="M64 20 L88 32 L88 56 C88 72 76 84 64 92 C52 84 40 72 40 56 L40 32 Z"
        fill="#FFFFFF" opacity="0.9"/>

  <!-- Magnifying glass lens -->
  <circle cx="56" cy="48" r="16" fill="none" stroke="#1E40AF" stroke-width="3"/>

  <!-- Magnifying glass handle -->
  <line x1="68" y1="60" x2="80" y2="72" stroke="#1E40AF" stroke-width="3" stroke-linecap="round"/>

  <!-- Lens reflection for depth -->
  <circle cx="56" cy="48" r="16" fill="url(#lensReflection)"/>

  <!-- Checkmark for verification -->
  <path d="M48 48 L54 54 L66 42" fill="none" stroke="#10B981" stroke-width="2.5" stroke-linecap="round" stroke-linejoin="round"/>

  <!-- Truth indicator dots -->
  <circle cx="64" cy="78" r="2" fill="#10B981"/>
  <circle cx="70" cy="78" r="2" fill="#F59E0B"/>
  <circle cx="58" cy="78" r="2" fill="#EF4444"/>
</svg>
